<?xml version="1.0" encoding="utf-8"?>
<!-- Generator: Adobe Illustrator 19.0.0, SVG Export Plug-In . SVG Version: 6.00 Build 0)  -->
<svg version="1.1" id="Layer_1" xmlns="http://www.w3.org/2000/svg" xmlns:xlink="http://www.w3.org/1999/xlink" x="0px" y="0px"
	 viewBox="0 0 96 96" style="enable-background:new 0 0 96 96;" xml:space="preserve">
<style type="text/css">
	.st0{fill:#ffffff;}
</style>
<g id="XMLID_1_">
	<path id="XMLID_5_" class="st0" d="M48,20.5c-15.2,0-27.5,12.3-27.5,27.5S32.8,75.5,48,75.5c15.2,0,27.5-12.3,27.5-27.5
		S63.2,20.5,48,20.5z M64.2,51.5c0.1,0.4,0.1,0.8,0.1,1.2c0,6-7.3,11-16.3,11c-9,0-16.3-4.9-16.3-11c0-0.4,0-0.9,0.1-1.3
		c-1.2-0.8-1.9-2.1-1.9-3.5c0-2.3,1.9-4.2,4.2-4.2c1,0,2,0.4,2.7,1c2.8-1.8,6.5-2.9,10.6-3l2.9-10l7.4,1.4l0,0
		c0.4-0.8,1.2-1.3,2.2-1.4c1.5-0.1,2.7,1.1,2.8,2.5c0.1,1.5-1.1,2.7-2.5,2.8c-1.5,0.1-2.7-1.1-2.8-2.5l0-0.1l-6.1-1.1l-2.5,8.5
		c4.1,0.1,7.8,1.2,10.5,3c0.8-0.7,1.7-1,2.8-1c2.3,0,4.2,1.9,4.2,4.2C66.2,49.4,65.4,50.7,64.2,51.5z"/>
	<path id="XMLID_6_" class="st0" d="M53.1,56.8c0,0-1.6,1.6-5.2,1.6c-3.5,0-4.9-1.5-4.9-1.5c-0.2-0.3-0.6-0.3-0.9-0.1
		c-0.3,0.2-0.3,0.7-0.1,0.9c0.1,0.1,1.7,2,5.9,2c4.2,0,6-1.9,6.1-2c0.2-0.3,0.2-0.7,0-0.9C53.8,56.6,53.3,56.6,53.1,56.8z"/>
	<circle id="XMLID_7_" class="st0" cx="53.5" cy="50.8" r="2.6"/>
	<circle id="XMLID_8_" class="st0" cx="42.8" cy="50.8" r="2.6"/>
</g>
</svg>
